<svg width="512" height="512" viewBox="0 0 512 512" xmlns="http://www.w3.org/2000/svg">
  <defs>
    <linearGradient id="bg-gradient" x1="0%" y1="0%" x2="100%" y2="100%">
      <stop offset="0%" style="stop-color:#667eea;stop-opacity:1" />
      <stop offset="100%" style="stop-color:#764ba2;stop-opacity:1" />
    </linearGradient>
  </defs>
  
  <!-- Background with rounded corners -->
  <rect width="512" height="512" rx="102" ry="102" fill="url(#bg-gradient)"/>
  
  <!-- Calculator/Chart Icon -->
  <g transform="translate(128, 128)">
    <!-- Calculator body -->
    <rect x="0" y="0" width="256" height="256" rx="32" ry="32" fill="white" opacity="0.9"/>
    
    <!-- Display area -->
    <rect x="32" y="32" width="192" height="64" rx="8" ry="8" fill="#2c3e50"/>
    
    <!-- Numbers display -->
    <text x="200" y="72" text-anchor="end" font-family="monospace" font-size="24" fill="white" font-weight="bold">TEM</text>
    
    <!-- Button grid -->
    <g fill="#667eea">
      <!-- Row 1 -->
      <rect x="32" y="128" width="40" height="32" rx="4" ry="4"/>
      <rect x="88" y="128" width="40" height="32" rx="4" ry="4"/>
      <rect x="144" y="128" width="40" height="32" rx="4" ry="4"/>
      <rect x="200" y="128" width="40" height="32" rx="4" ry="4"/>
      
      <!-- Row 2 -->
      <rect x="32" y="176" width="40" height="32" rx="4" ry="4"/>
      <rect x="88" y="176" width="40" height="32" rx="4" ry="4"/>
      <rect x="144" y="176" width="40" height="32" rx="4" ry="4"/>
      <rect x="200" y="176" width="40" height="32" rx="4" ry="4"/>
      
      <!-- Row 3 -->
      <rect x="32" y="224" width="40" height="32" rx="4" ry="4"/>
      <rect x="88" y="224" width="40" height="32" rx="4" ry="4"/>
      <rect x="144" y="224" width="40" height="32" rx="4" ry="4"/>
      <rect x="200" y="224" width="40" height="32" rx="4" ry="4"/>
    </g>
    
    <!-- Chart bars overlay -->
    <g fill="white" opacity="0.7">
      <rect x="48" y="200" width="8" height="24"/>
      <rect x="64" y="190" width="8" height="34"/>
      <rect x="80" y="185" width="8" height="39"/>
      <rect x="96" y="195" width="8" height="29"/>
    </g>
  </g>
</svg>